HIERARCHY
ROOT Hips
{
	OFFSET 0.00000 0.00000 0.00000
	CHANNELS 6 Xposition Yposition Zposition Zrotation Yrotation Xrotation 
	JOINT LHipJoint
	{
		OFFSET 0 0 0
		CHANNELS 3 Zrotation Yrotation Xrotation
		JOINT LeftHip
		{
			OFFSET 1.84395 -1.68683 0.74144
			CHANNELS 3 Zrotation Yrotation Xrotation
			JOINT LeftKnee
			{
				OFFSET 2.27037 -6.23779 0.00000
				CHANNELS 3 Zrotation Yrotation Xrotation
				JOINT LeftAnkle
				{
					OFFSET 2.56918 -7.05877 0.00000
					CHANNELS 3 Zrotation Yrotation Xrotation
					JOINT LeftToe
					{
						OFFSET 0.22276 -0.61202 1.71784
						CHANNELS 3 Zrotation Yrotation Xrotation
						End Site
						{
							OFFSET 0.00000 -0.00000 0.91613
						}
					}
				}
			}
		}
	}
	JOINT RHipJoint
	{
		OFFSET 0 0 0
		CHANNELS 3 Zrotation Yrotation Xrotation
		JOINT RightHip
		{
			OFFSET -1.76833 -1.68684 0.74144
			CHANNELS 3 Zrotation Yrotation Xrotation
			JOINT RightKnee
			{
				OFFSET -2.49360 -6.85110 0.00000
				CHANNELS 3 Zrotation Yrotation Xrotation
				JOINT RightAnkle
				{
					OFFSET -2.55538 -7.02085 0.00000
					CHANNELS 3 Zrotation Yrotation Xrotation
					JOINT RightToe
					{
						OFFSET -0.21516 -0.59115 1.68050
						CHANNELS 3 Zrotation Yrotation Xrotation
						End Site
						{
							OFFSET -0.00000 -0.00000 0.89604
						}
					}
				}
			}
		}
	}
	JOINT lowerback
	{
		OFFSET 0 0 0
		CHANNELS 3 Zrotation Yrotation Xrotation
		JOINT Chest
		{
			OFFSET 0.06382 1.72312 -0.19613
			CHANNELS 3 Zrotation Yrotation Xrotation
			JOINT Chest2
			{
				OFFSET -0.00055 1.73507 0.23859
				CHANNELS 3 Zrotation Yrotation Xrotation
				JOINT lowerneck
				{
					OFFSET 0 0 0
					CHANNELS 3 Zrotation Yrotation Xrotation
					JOINT Neck
					{
						OFFSET 0.03638 1.65562 0.09633
						CHANNELS 3 Zrotation Yrotation Xrotation
						JOINT Head
						{
							OFFSET 0.06388 1.62807 -0.32386
							CHANNELS 3 Zrotation Yrotation Xrotation
							End Site
							{
								OFFSET 0.00995 1.67644 -0.12021
							}
						}
					}
				}
				JOINT LeftCollar
				{
					OFFSET 0 0 0
					CHANNELS 3 Zrotation Yrotation Xrotation
					JOINT LeftShoulder
					{
						OFFSET 3.09648 1.42991 0.28122
CHANNELS 3 Zrotation Xrotation Yrotation
						JOINT LeftElbow
						{
OFFSET 0 -5.118780 -0.000000
CHANNELS 3 Zrotation Xrotation Yrotation
							JOINT LeftWrist
							{
OFFSET 0 -3.599710 0.000000
CHANNELS 3 Zrotation Xrotation Yrotation
								JOINT lhand
								{
									OFFSET 0 0 0
CHANNELS 3 Zrotation Xrotation Yrotation
									JOINT LFingers
									{
OFFSET 0 -0.628770 0.000000
CHANNELS 3 Zrotation Xrotation Yrotation
										End Site
										{
OFFSET 0 -0.506930 0.000000
										}
									}
								}
								JOINT LThumb
								{
OFFSET 0 0.000000 0.000000
CHANNELS 3 Zrotation Xrotation Yrotation
									End Site
									{
OFFSET 0 -0.514670 0.514670
									}
								}
							}
						}
					}
				}
				JOINT RightCollar
				{
					OFFSET 0 0 0
					CHANNELS 3 Zrotation Yrotation Xrotation
					JOINT RightShoulder
					{
						OFFSET -3.33565 1.14597 0.05047
CHANNELS 3 Zrotation Xrotation Yrotation
						JOINT RightElbow
						{
OFFSET 0 -5.490200 0.000000
CHANNELS 3 Zrotation Xrotation Yrotation
							JOINT RightWrist
							{
OFFSET 0 -3.206590 -0.000000
CHANNELS 3 Zrotation Xrotation Yrotation
								JOINT rhand
								{
									OFFSET 0 0 0
CHANNELS 3 Zrotation Xrotation Yrotation
									JOINT RFingers
									{
OFFSET 0 -0.691880 0.000000
CHANNELS 3 Zrotation Xrotation Yrotation
										End Site
										{
OFFSET 0 -0.557810 0.000000
										}
									}
								}
								JOINT RThumb
								{
OFFSET 0 0.000000 0.000000
CHANNELS 3 Zrotation Xrotation Yrotation
									End Site
									{
OFFSET 0 -0.566330 0.566330
									}
								}
							}
						}
					}
				}
			}
		}
	}
}
MOTION
Frames: 8
Frame Time: 0.008333333333333333
0.828685 17.588960 9.549346 -9.703905 -12.042194 14.156861 0.000000 0.000000 0.000000 -15.617119 -33.664237 16.644531 0.034178 -1.193829 -3.282369 -4.695576 41.706735 -42.593838 0.697095 5.337152 14.872704 0.000000 0.000000 0.000000 25.399130 27.018049 0.291516 -0.008435 -0.592319 1.627647 0.409533 -14.895492 -15.899711 -0.072341 -1.734225 4.771684 3.414862 -2.661039 5.286341 2.582384 -2.971114 -10.461909 1.493642 -1.619032 -14.516503 1.525260 -1.317025 -18.592918 1.838316 -2.906772 23.975419 -0.023771 -0.979095 10.821016 0.000000 0.000000 0.000000 7.845605 -16.738545 -86.411028 141.282876 -47.289197 102.508759 7.272750 -53.042333 19.715335 0.000000 0.000000 0.000000 -7.125000 0.000000 0.000000 -13.557279 10.538729 -11.173225 0.000000 0.000000 0.000000 -46.372758 8.658684 16.271189 -106.108917 -58.927458 -73.894656 12.216171 -33.348050 31.313129 0.000000 0.000000 0.000000 7.125000 0.000000 0.000000 45.987972 55.163092 -13.559142
0.804370 17.579563 9.573449 -9.546489 -11.838451 13.910580 0.000000 0.000000 0.000000 -15.987148 -33.707604 17.132947 0.035478 -1.216048 -3.343493 -4.726133 41.756214 -42.580505 0.667190 5.223199 14.546366 0.000000 0.000000 0.000000 25.524030 27.012691 0.815930 -0.007226 -0.548506 1.507280 0.424571 -15.159492 -16.183305 -0.077618 -1.797224 4.945643 3.824579 -2.445146 4.740728 2.581355 -2.653732 -10.424306 1.174690 -1.515360 -14.145281 1.254342 -1.226751 -18.133871 1.255058 -2.535935 24.359108 -0.132134 -0.906919 10.865077 0.000000 0.000000 0.000000 10.405472 -11.461220 -78.014909 143.535725 -45.824203 104.143586 3.029264 -51.501999 18.389621 0.000000 0.000000 0.000000 -7.125000 0.000000 0.000000 -16.300877 12.093615 -13.071397 0.000000 0.000000 0.000000 -42.958736 11.607916 17.781953 -122.561402 -55.503900 -87.761977 17.224725 -36.936647 29.700353 0.000000 0.000000 0.000000 7.125000 0.000000 0.000000 48.744264 53.020956 -11.840141
0.776342 17.568066 9.594566 -9.349624 -11.529830 13.671995 0.000000 0.000000 0.000000 -16.422537 -33.893689 17.610825 0.034869 -1.205010 -3.313083 -4.767475 41.869648 -42.673751 0.631961 5.086448 14.155350 0.000000 0.000000 0.000000 25.552670 26.809812 1.188818 -0.006465 -0.517887 1.423171 0.429797 -15.281970 -16.343399 -0.068879 -1.693347 4.658879 4.463005 -2.315346 4.483995 2.410199 -2.430474 -10.508143 0.584174 -1.495302 -14.138999 1.502486 -0.983913 -17.860830 0.541549 -2.088813 25.273218 -0.369426 -0.761817 11.139913 0.000000 0.000000 0.000000 12.945710 -5.395727 -70.563822 146.770971 -43.498912 106.418307 -4.484281 -49.128066 16.710394 0.000000 0.000000 0.000000 -7.125000 0.000000 0.000000 -21.152638 13.928059 -16.645456 0.000000 0.000000 0.000000 -38.448853 13.955434 20.552253 -135.842689 -50.288106 -98.394460 22.662739 -39.590914 26.099491 0.000000 0.000000 0.000000 7.125000 0.000000 0.000000 49.960348 49.449144 -7.068030
0.749721 17.556991 9.613247 -9.377289 -11.354025 13.488764 0.000000 0.000000 0.000000 -16.693130 -34.116356 18.227221 0.036130 -1.226850 -3.373244 -4.756133 42.071085 -43.199755 0.619940 5.038716 14.019096 0.000000 0.000000 0.000000 25.807759 26.709291 1.497432 -0.006672 -0.526432 1.446582 0.416677 -15.263207 -16.511104 -0.071012 -1.718917 4.729445 4.815530 -2.138453 3.469497 2.564606 -2.211551 -10.157653 0.453558 -1.406105 -13.072798 1.506886 -0.735202 -17.740235 0.156434 -1.641223 26.164176 -0.449596 -0.600609 11.451002 0.000000 0.000000 0.000000 14.176415 0.177048 -63.746969 150.315285 -40.610928 108.792270 -11.407731 -44.874128 15.856354 0.000000 0.000000 0.000000 -7.125000 0.000000 0.000000 -25.474660 14.680842 -20.343557 0.000000 0.000000 0.000000 -33.791465 14.675552 24.437622 -145.142321 -44.669108 -105.273173 28.159296 -40.588738 22.451202 0.000000 0.000000 0.000000 7.125000 0.000000 0.000000 51.011037 45.864536 -1.482651
0.735633 17.547110 9.632346 -9.504549 -11.526309 13.380977 0.000000 0.000000 0.000000 -16.977416 -34.244917 18.859045 0.037522 -1.249769 -3.436240 -4.538811 42.189474 -44.351456 0.667042 5.222488 14.544504 0.000000 0.000000 0.000000 26.006237 26.311689 1.471769 -0.008111 -0.580931 1.596290 0.351847 -14.604581 -16.253701 -0.061185 -1.592935 4.381982 5.382945 -1.828626 3.047710 2.640021 -1.753223 -10.226114 0.139085 -1.238834 -12.900257 1.726045 -0.508281 -17.695891 -0.198811 -1.318522 28.075546 -0.583060 -0.466218 12.183409 0.000000 0.000000 0.000000 14.578703 6.232584 -57.349948 153.562592 -37.631230 110.844133 -18.215465 -40.197925 15.946554 0.000000 0.000000 0.000000 -7.125000 0.000000 0.000000 -29.332439 14.247964 -24.790806 0.000000 0.000000 0.000000 -29.087334 15.400178 29.973478 -151.349707 -39.691893 -109.457436 34.072553 -40.216869 18.792087 0.000000 0.000000 0.000000 7.125000 0.000000 0.000000 51.729112 42.071335 5.515403
0.725533 17.534149 9.649869 -9.485779 -12.089933 13.451395 0.000000 0.000000 0.000000 -17.568767 -34.586282 19.540931 0.039424 -1.281979 -3.524959 -4.507906 42.777194 -45.772153 0.695707 5.332056 14.858089 0.000000 0.000000 0.000000 25.853065 25.903055 1.050807 -0.010804 -0.669787 1.840514 0.276927 -13.675298 -15.712006 -0.037401 -1.247879 3.431155 5.702501 -1.382220 2.337762 2.571558 -1.175917 -10.321410 -0.215588 -0.996551 -12.557976 2.146842 -0.525877 -17.875443 -0.766642 -1.352578 30.407257 -0.902805 -0.495057 13.162690 0.000000 0.000000 0.000000 14.401228 11.664555 -51.092629 156.324827 -34.814952 112.478039 -25.107751 -36.211175 16.483330 0.000000 0.000000 0.000000 -7.125000 0.000000 0.000000 -32.769700 12.977185 -30.169359 0.000000 0.000000 0.000000 -23.717650 14.858868 35.107376 -154.842226 -36.360158 -111.614849 43.078355 -39.932688 14.474140 0.000000 0.000000 0.000000 7.125000 0.000000 0.000000 51.740330 36.272596 17.991881
0.713060 17.526366 9.670009 -9.318124 -12.519608 13.402785 0.000000 0.000000 0.000000 -18.142048 -34.640559 20.011706 0.039449 -1.281758 -3.524398 -4.238514 42.815504 -46.823881 0.772802 5.612968 15.665583 0.000000 0.000000 0.000000 25.703805 25.900367 1.119736 -0.011141 -0.682691 1.876074 0.246855 -13.341445 -15.592643 -0.048508 -1.420923 3.907690 5.869578 -0.811406 1.510815 2.327687 -0.471988 -10.443555 -0.681367 -0.684986 -12.156724 1.866298 -0.739666 -17.388221 -0.118163 -1.840573 32.511174 -0.696751 -0.636324 13.965341 0.000000 0.000000 0.000000 14.033993 15.724705 -46.195592 158.088481 -32.876256 113.462038 -30.756023 -36.153171 16.983623 0.000000 0.000000 0.000000 -7.125000 0.000000 0.000000 -35.206219 11.412759 -35.293613 0.000000 0.000000 0.000000 -19.138427 14.427990 39.833433 -156.840664 -34.261649 -112.771804 48.215761 -42.859473 13.057679 0.000000 0.000000 0.000000 7.125000 0.000000 0.000000 50.930189 32.663676 26.108381
0.706829 17.524248 9.684195 -9.247767 -12.668269 13.170013 0.000000 0.000000 0.000000 -18.405622 -34.385252 20.291332 0.038807 -1.271840 -3.496986 -3.978654 42.541842 -47.170404 0.819487 5.776269 16.136492 0.000000 0.000000 0.000000 25.735116 25.628312 1.312360 -0.011704 -0.698973 1.920898 0.213427 -13.030935 -15.579056 -0.042980 -1.338033 3.679522 6.013495 -0.198735 0.860527 2.128886 0.304260 -10.546998 -1.073644 -0.329654 -11.829490 1.185832 -0.907835 -16.042031 1.475065 -2.467648 34.148741 -0.036893 -0.762057 14.434381 0.000000 0.000000 0.000000 14.413168 18.072222 -44.327898 157.999414 -32.977736 113.413807 -29.412131 -39.912756 19.487307 0.000000 0.000000 0.000000 -7.125000 0.000000 0.000000 -34.135265 9.462449 -35.293089 0.000000 0.000000 0.000000 -15.756727 13.908249 42.783531 -157.611532 -33.413237 -113.201411 49.201559 -45.267326 13.416286 0.000000 0.000000 0.000000 7.125000 0.000000 0.000000 51.128334 32.523482 26.778009
